<?xml version="1.0" encoding="utf-8"?>
<!-- Generator: Adobe Illustrator 16.0.0, SVG Export Plug-In . SVG Version: 6.00 Build 0)  -->
<!DOCTYPE svg PUBLIC "-//W3C//DTD SVG 1.1//EN" "http://www.w3.org/Graphics/SVG/1.1/DTD/svg11.dtd">
<svg version="1.1" id="bold" xmlns="http://www.w3.org/2000/svg" xmlns:xlink="http://www.w3.org/1999/xlink" x="0px" y="0px"
	 width="512px" height="512px" viewBox="0 0 512 512" enable-background="new 0 0 512 512" xml:space="preserve">
<path fill="#5A5B5E" d="M316.331,256l113.13-113.131c12.502-12.501,12.502-32.768,0-45.248l-15.082-15.083
	c-12.502-12.501-32.769-12.501-45.248,0L256,195.669L142.869,82.518c-12.501-12.501-32.768-12.501-45.248,0L82.518,97.6
	c-12.501,12.501-12.501,32.768,0,45.248L195.669,256L82.539,369.131c-12.501,12.501-12.501,32.768,0,45.248l15.083,15.082
	c12.501,12.502,32.768,12.502,45.248,0L256,316.33l113.131,113.131c12.501,12.502,32.768,12.502,45.248,0l15.082-15.082
	c12.502-12.502,12.502-32.768,0-45.248L316.331,256z"/>
</svg>
